<mxfile host="app.diagrams.net" modified="2023-05-10T07:35:34.133Z" agent="Mozilla/5.0 (Windows NT 10.0; Win64; x64) AppleWebKit/537.36 (KHTML, like Gecko) Chrome/113.0.0.0 Safari/537.36" version="21.2.4" etag="dODVK19sEccIVsa_NVhf" type="github">
  <diagram name="PÃ¡gina-1" id="Wgii_1xujVQhHGu8R4Lh">
    <mxGraphModel>
      <root>
        <mxCell id="0" />
        <mxCell id="1" parent="0" />
      </root>
    </mxGraphModel>
  </diagram>
</mxfile>
